<svg width="44" height="34" viewBox="0 0 44 34" fill="none" xmlns="http://www.w3.org/2000/svg">
<g clip-path="url(#clip0_746_86)">
<path fill-rule="evenodd" clip-rule="evenodd" d="M28.2518 5.38046L28.2863 18.9836C28.0814 26.4279 22.2472 32.3958 14.9034 32.4144C7.49336 32.4332 1.47124 26.4044 1.45233 18.9485L1.41809 5.44851L8.12651 5.4315L8.16075 18.9315C8.1702 22.6594 11.1813 25.6738 14.8863 25.6644C18.5266 25.6552 21.453 22.6778 21.5775 18.8434L21.5434 5.39747L28.2518 5.38046Z" fill="white" stroke="white" stroke-width="2" stroke-linecap="round" stroke-linejoin="round"/>
<path d="M29.1528 8.78503C30.7727 7.49525 35.3382 6.16384 37.7847 8.63087C38.1602 9.11145 38.7405 9.6556 39.026 9.6787C42.5077 9.96052 43.3133 5.85834 42.072 4.81034C40.8306 3.76235 40.8307 3.76272 40.8307 3.76272C35.5876 -0.980694 27.3789 1.44298 22.258 4.79254" stroke="white" stroke-width="2" stroke-linecap="round" stroke-linejoin="round"/>
<path fill-rule="evenodd" clip-rule="evenodd" d="M35.9372 14.8027C36.5894 14.7472 37.2435 14.8835 37.8192 15.1949C38.3949 15.5064 38.867 15.9793 39.1775 16.5555C39.4879 17.1317 39.6231 17.7861 39.5665 18.4382C39.5099 19.0903 39.2639 19.7116 38.8588 20.2257C38.4537 20.7398 37.9072 21.1243 37.2864 21.3318C36.6657 21.5394 35.9978 21.5609 35.3649 21.3939C34.7321 21.2268 34.1619 20.8784 33.7244 20.3915C33.287 19.9046 33.0015 19.3005 32.9029 18.6534L32.8651 18.2071C32.8293 16.4581 34.1618 14.9529 35.9372 14.8027Z" fill="white" stroke="white" stroke-width="2" stroke-linecap="round" stroke-linejoin="round"/>
<path fill-rule="evenodd" clip-rule="evenodd" d="M22.3391 5.2701L22.2813 32.5164L28.9883 32.5306L29.0462 5.26227L22.3392 5.24805" fill="white"/>
<path d="M22.3391 5.2701L22.2813 32.5164L28.9883 32.5306L29.0462 5.26227L22.3392 5.24805" stroke="white" stroke-width="2" stroke-linecap="round" stroke-linejoin="round"/>
<path d="M40.0637 6.74399C39.4861 6.39675 38.2071 5.93086 37.3041 5.66912C36.4406 5.41884 35.5897 4.99908 34.1406 4.85425C29.9657 4.43701 29.2487 5.34457 28.5499 5.72496C28.3779 5.8186 28.2018 5.92737 28.0264 5.95791C27.8511 5.98844 27.6783 5.93086 27.5317 5.81482C27.3852 5.69879 27.27 5.52604 27.2395 5.35068C27.1796 5.0067 29.2836 4.82459 30.8706 4.36131C31.9184 4.12662 32.7316 3.89629 36.2982 3.86401C37.038 3.95039 37.1532 4.12313 37.2718 4.4756" stroke="white" stroke-width="5" stroke-linecap="round"/>
</g>
<defs>
<clipPath id="clip0_746_86">
<rect width="44" height="34" fill="white"/>
</clipPath>
</defs>
</svg>
